<?xml version="1.0" encoding="utf-8"?>
<!-- Generator: Adobe Illustrator 26.5.0, SVG Export Plug-In . SVG Version: 6.00 Build 0)  -->
<svg version="1.2" baseProfile="tiny" id="Layer_1" xmlns="http://www.w3.org/2000/svg" xmlns:xlink="http://www.w3.org/1999/xlink"
	 x="0px" y="0px" width="200px" height="200px" viewBox="0 0 200 200" overflow="visible" xml:space="preserve">
<circle fill="none" stroke="#1A1A1A" stroke-width="0.2666667" stroke-linecap="round" stroke-miterlimit="2.6666667" cx="100" cy="100" r="33.3333321"/>
<circle fill="none" stroke="#1A1A1A" stroke-width="0.2666667" stroke-linecap="round" stroke-miterlimit="2.6666667" cx="100" cy="100" r="35.3333321"/>
<circle fill="none" stroke="#1A1A1A" stroke-width="0.2666667" stroke-linecap="round" stroke-miterlimit="2.6666667" cx="100" cy="100" r="28.666666"/>
<circle fill="none" stroke="#1A1A1A" stroke-width="0.2666667" stroke-linecap="round" stroke-miterlimit="2.6666667" cx="100" cy="100" r="30.666666"/>
<circle fill="none" stroke="#7A7D7D" stroke-width="2" stroke-linecap="round" stroke-miterlimit="2.6666667" cx="100" cy="100" r="34.3333321"/>
<circle fill="none" stroke="#7A7D7D" stroke-width="2" stroke-linecap="round" stroke-miterlimit="2.6666667" cx="100" cy="100" r="29.666666"/>
<path fill="#DB504A" stroke="#1A1A1A" stroke-width="0.2666667" stroke-linecap="round" stroke-miterlimit="2.6666667" d="
	M79.6000061,149.2666779c5.3333282-9.2000122,6.3333282-11.444458,9.4888916-15.6666718
	c-1.7555542-0.577774-3.4666672-1.2888947-5.1111145-2.1111145C83.1999969,136.7111206,82.3333359,139,79.6000061,149.2666779"/>
<path fill="#DB504A" stroke="#1A1A1A" stroke-width="0.2666667" stroke-linecap="round" stroke-miterlimit="2.6666667" d="
	M50.7333336,120.4000015C61,117.6666641,63.3111115,116.7777786,68.5111084,116.0222168
	c-0.8444443-1.6444473-1.5555573-3.3555527-2.1111069-5.1111069
	C62.1777763,114.0888977,59.9111137,115.0888977,50.7333336,120.4000015"/>
<path fill="#DB504A" stroke="#1A1A1A" stroke-width="0.2666667" stroke-linecap="round" stroke-miterlimit="2.6666667" d="
	M50.7333336,79.6000061c9.2000046,5.3333282,11.4444427,6.3333282,15.6666679,9.4888916
	c0.577774-1.7555542,1.2888794-3.4666672,2.1111069-5.1111145C63.288887,83.1999969,61,82.3333359,50.7333336,79.6000061"/>
<path fill="#DB504A" stroke="#1A1A1A" stroke-width="0.2666667" stroke-linecap="round" stroke-miterlimit="2.6666667" d="
	M79.6000061,50.7333336C82.3333359,61,83.2222214,63.3111115,83.9777832,68.5111084
	c1.6444473-0.8444443,3.3555603-1.5555573,5.1111145-2.1111069C85.9111099,62.1777763,84.9111099,59.9111137,79.6000061,50.7333336"
	/>
<path fill="#DB504A" stroke="#1A1A1A" stroke-width="0.2666667" stroke-linecap="round" stroke-miterlimit="2.6666667" d="
	M120.4000015,149.2666779c-2.7333374-10.2666779-3.6222229-12.577774-4.3777847-17.7777863
	c-1.6444473,0.8444366-3.3555527,1.5555573-5.1111069,2.1111145
	C114.0888977,137.8222198,115.0888977,140.0888977,120.4000015,149.2666779"/>
<path fill="#DB504A" stroke="#1A1A1A" stroke-width="0.2666667" stroke-linecap="round" stroke-miterlimit="2.6666667" d="
	M149.2666779,120.4000015c-9.2000122-5.3333359-11.444458-6.3333359-15.6666718-9.4888916
	c-0.577774,1.7555542-1.2888947,3.4666595-2.1111145,5.1111069C136.7111206,116.7999954,139,117.6666641,149.2666779,120.4000015"/>
<path fill="#DB504A" stroke="#1A1A1A" stroke-width="0.2666667" stroke-linecap="round" stroke-miterlimit="2.6666667" d="
	M120.4000015,50.7333336c-5.3333359,9.2000046-6.3333359,11.4444427-9.4888916,15.6666679
	c1.7555542,0.577774,3.4666595,1.2888794,5.1111069,2.1111069C116.7999954,63.288887,117.6666641,61,120.4000015,50.7333336"/>
<path fill="#DB504A" stroke="#1A1A1A" stroke-width="0.2666667" stroke-linecap="round" stroke-miterlimit="2.6666667" d="
	M149.2666779,79.6000061C139,82.3333359,136.6889038,83.2222214,131.4888916,83.9777832
	c0.8444366,1.6444473,1.5555573,3.3555603,2.1111145,5.1111145
	C137.8222198,85.9111099,140.0888977,84.9111099,149.2666779,79.6000061"/>
</svg>
