<?xml version="1.0" encoding="utf-8"?>
<!-- Generator: Adobe Illustrator 26.5.0, SVG Export Plug-In . SVG Version: 6.00 Build 0)  -->
<svg version="1.1" id="CompassZeroLayer" xmlns="http://www.w3.org/2000/svg" xmlns:xlink="http://www.w3.org/1999/xlink" x="0px"
	 y="0px" viewBox="0 0 200 200" enable-background="new 0 0 200 200" xml:space="preserve">
<path fill="#7A7D7D" stroke="#1A1A1A" stroke-width="0.2666" stroke-miterlimit="10" d="M100,164.0332031
	c-35.3081055,0-64.0336914-28.7246094-64.0336914-64.0332031c0-35.3081055,28.7255859-64.0336914,64.0336914-64.0336914
	c35.3085938,0,64.0332031,28.7255859,64.0332031,64.0336914C164.0332031,135.3085938,135.3085938,164.0332031,100,164.0332031z
	 M100,38.6333008c-33.8378906,0-61.3666992,27.5288086-61.3666992,61.3666992S66.1621094,161.3671875,100,161.3671875
	S161.3671875,133.8378906,161.3671875,100S133.8378906,38.6333008,100,38.6333008z"/>
<path fill="#7A7D7D" stroke="#231F20" stroke-width="0.25" stroke-miterlimit="10" d="M100,158.0332031
	C68,158.0332031,41.9663086,132,41.9663086,100S68,41.9663086,100,41.9663086S158.0332031,68,158.0332031,100
	S132,158.0332031,100,158.0332031z M100,44.6333008c-30.5292969,0-55.3666992,24.8374023-55.3666992,55.3666992
	S69.4707031,155.3671875,100,155.3671875S155.3671875,130.5292969,155.3671875,100S130.5292969,44.6333008,100,44.6333008z"/>
<path fill="#16697A" stroke="#1A1A1A" stroke-width="0.2667" stroke-linecap="round" stroke-miterlimit="2.6666999" d="M100,190
	c1.6999969-6.1999969,5.0999985-12.5,7.6999969-16.1000061c-0.3000031-1.3999939,0-2.1000061,1.5999985-2.5
	c4.3000031-6.6000061,8.1999969-8.3000031,13.4000015-11.6000061c-7.3000031,2.8000031-15,4.1999969-22.6999969,4.1999969V190
	c-1.0999985-3.8999939-2.9000015-7.8999939-4.6999969-11.1999969l-1-15c-5.8000031-0.5-11.5999985-1.8000031-17-3.8999939
	c5.1999969,3.3000031,9.0999985,5,13.4000015,11.6000061c1.5999985,0.3000031,1.9000015,1.1000061,1.5999985,2.5
	C94.9000015,177.5,98.3000031,183.8000031,100,190"/>
<path fill="#16697A" stroke="#1A1A1A" stroke-width="0.2667" stroke-linecap="round" stroke-miterlimit="2.6666999" d="M10,100
	c6.2000008,1.6999969,12.5,5.0999985,16.1000004,7.6999969c1.3999996-0.3000031,2.1000004,0,2.5,1.5999985
	c6.6000004,4.3000031,8.3000011,8.1999969,11.6000004,13.4000015C37.4000015,115.3999939,36,107.6999969,36,100H10
	c3.8999996-1.0999985,7.8999996-2.9000015,11.2000008-4.6999969l15-1c0.5-5.8000031,1.7999992-11.5999985,3.9000015-17
	c-3.2999992,5.1999969-5,9.0999985-11.6000004,13.4000015c-0.2999992,1.5999985-1.1000004,1.9000015-2.5,1.5999985
	C22.5,94.9000015,16.2000008,98.3000031,10,100"/>
<path fill="#16697A" stroke="#1A1A1A" stroke-width="0.2667" stroke-linecap="round" stroke-miterlimit="2.6666999" d="M100,10
	c-1.6999969,6.2000008-5.0999985,12.5-7.6999969,16.1000004c0.3000031,1.3999996,0,2.1000004-1.5999985,2.5
	c-4.3000031,6.6000004-8.1999969,8.3000011-13.4000015,11.6000004C84.6000061,37.4000015,92.3000031,36,100,36V10
	c1.0999985,3.8999996,2.9000015,7.8999996,4.6999969,11.2000008l1,15c5.8000031,0.5,11.5999985,1.7999992,17,3.9000015
	c-5.1999969-3.2999992-9.0999985-5-13.4000015-11.6000004c-1.5999985-0.2999992-1.9000015-1.1000004-1.5999985-2.5
	C105.0999985,22.5,101.6999969,16.2000008,100,10"/>
<path fill="#16697A" stroke="#1A1A1A" stroke-width="0.2667" stroke-linecap="round" stroke-miterlimit="2.6666999" d="M190,100
	c-6.1999969-1.6999969-12.5-5.0999985-16.1000061-7.6999969c-1.3999939,0.3000031-2.1000061,0-2.5-1.5999985
	c-6.6000061-4.3000031-8.3000031-8.1999969-11.6000061-13.4000015c2.8000031,7.3000031,4.1999969,15,4.1999969,22.6999969H190
	c-3.8999939,1.0999985-7.8999939,2.9000015-11.1999969,4.6999969l-15,1c-0.5,5.8000031-1.8000031,11.5999985-3.8999939,17
	c3.3000031-5.1999969,5-9.0999985,11.6000061-13.4000015c0.3000031-1.5999985,1.1000061-1.9000015,2.5-1.5999985
	C177.5,105.0999985,183.8000031,101.6999969,190,100"/>
<path fill="#3E4E50" stroke="#1A1A1A" stroke-width="0.2667" stroke-linecap="round" stroke-miterlimit="2.6666999" d="
	M36.4000015,163.6000061C42,160.4000092,48.8000031,158.4000092,53.2000008,157.7000122
	c0.7999992-1.1999969,1.5-1.5,2.9000015-0.6000061C63.8000031,155.5,67.8000031,157,73.8000031,158.3000031
	c-7.0999985-3.1999969-13.5-7.6000061-19-13.1000061L36.4000015,163.6000061C38.4000015,160,39.9000015,156,41,152.4000092
	l9.9000015-11.3999939c-3.7999992-4.5-6.9000015-9.5-9.2999992-14.8000031c1.2999992,6,2.9000015,10,1.2000008,17.6999969
	c0.9000015,1.3999939,0.5999985,2.1000061-0.5999985,2.8999939C41.5999985,151.1999969,39.5,158,36.4000015,163.6000061"/>
<path fill="#3E4E50" stroke="#1A1A1A" stroke-width="0.2667" stroke-linecap="round" stroke-miterlimit="2.6666999" d="
	M36.4000015,36.4000015C39.6000023,42,41.6000023,48.8000031,42.3000031,53.2000008
	c1.2000008,0.7999992,1.5,1.5,0.5999985,2.9000015C44.5,63.8000031,43,67.8000031,41.7000008,73.8000031
	c3.2000008-7.0999985,7.5999985-13.5,13.1000023-19L36.4000015,36.4000015C40,38.4000015,44,39.9000015,47.6000023,41L59,50.9000015
	C63.5,47.1000023,68.5,44,73.8000031,41.6000023c-6,1.2999992-10,2.9000015-17.7000008,1.2000008
	c-1.4000015,0.9000015-2.0999985,0.5999985-2.9000015-0.5999985C48.7999992,41.5999985,42,39.5,36.4000015,36.4000015"/>
<path fill="#3E4E50" stroke="#1A1A1A" stroke-width="0.2667" stroke-linecap="round" stroke-miterlimit="2.6666999" d="
	M163.6000061,163.6000061c-5.6000061-3.1999969-12.3999939-5.1999969-16.8000031-5.8999939
	c-0.8000031-1.1999969-1.5-1.5-2.8999939-0.6000061C136.2000122,155.5,132.2000122,157,126.2000122,158.3000031
	c7.1000061-3.1999969,13.5-7.6000061,19-13.1000061L163.6000061,163.6000061c-2-3.6000061-3.5-7.6000061-4.6000061-11.1999969
	l-9.8999939-11.3999939c3.8000031-4.5,6.8999939-9.5,9.3000031-14.8000031c-1.3000031,6-2.8999939,10-1.1999969,17.6999969
	c-0.8999939,1.3999939-0.6000061,2.1000061,0.6000061,2.8999939C158.3999939,151.1999969,160.5,158,163.6000061,163.6000061"/>
<path fill="#3E4E50" stroke="#1A1A1A" stroke-width="0.2667" stroke-linecap="round" stroke-miterlimit="2.6666999" d="
	M163.6000061,36.4000015C158,39.6000023,151.2000122,41.6000023,146.8000031,42.3000031
	c-0.8000031,1.2000008-1.5,1.5-2.8999939,0.5999985C136.2000122,44.5,132.2000122,43,126.2000122,41.7000008
	c7.1000061,3.2000008,13.5,7.5999985,19,13.1000023L163.6000061,36.4000015C161.6000061,40,160.1000061,44,159,47.6000023
	L149.1000061,59c3.8000031,4.5,6.8999939,9.5,9.3000031,14.8000031c-1.3000031-6-2.8999939-10-1.1999969-17.7000008
	c-0.8999939-1.4000015-0.6000061-2.0999985,0.6000061-2.9000015C158.3999939,48.7999992,160.5,42,163.6000061,36.4000015"/>
</svg>
