<?xml version="1.0" encoding="utf-8"?>
<!-- Generator: Adobe Illustrator 26.5.0, SVG Export Plug-In . SVG Version: 6.00 Build 0)  -->
<svg version="1.1" id="Layer_1" xmlns="http://www.w3.org/2000/svg" xmlns:xlink="http://www.w3.org/1999/xlink" x="0px" y="0px"
	 width="200px" height="200px" viewBox="0 0 200 200" style="enable-background:new 0 0 200 200;" xml:space="preserve">
<style type="text/css">
	.st0{fill:none;stroke:#1A1A1A;stroke-width:0.2667;stroke-linecap:round;stroke-miterlimit:2.6667;}
	.st1{fill:none;stroke:#7A7D7D;stroke-width:2.6667;stroke-linecap:round;stroke-miterlimit:2.6667;}
	.st2{fill:#16697A;stroke:#1A1A1A;stroke-width:0.2667;stroke-linecap:round;stroke-miterlimit:2.6667;}
	.st3{fill:#3E4E50;stroke:#1A1A1A;stroke-width:0.2667;stroke-linecap:round;stroke-miterlimit:2.6667;}
</style>
<circle class="st0" cx="100" cy="100" r="61.3"/>
<circle class="st0" cx="100" cy="100" r="64"/>
<circle class="st0" cx="100" cy="100" r="55.3"/>
<circle class="st0" cx="100" cy="100" r="58"/>
<circle class="st1" cx="100" cy="100" r="62.7"/>
<circle class="st1" cx="100" cy="100" r="56.7"/>
<path class="st2" d="M100,190c1.7-6.2,5.1-12.5,7.7-16.1c-0.3-1.4,0-2.1,1.6-2.5c4.3-6.6,8.2-8.3,13.4-11.6
	c-7.3,2.8-15,4.2-22.7,4.2V190c-1.1-3.9-2.9-7.9-4.7-11.2l-1-15c-5.8-0.5-11.6-1.8-17-3.9c5.2,3.3,9.1,5,13.4,11.6
	c1.6,0.3,1.9,1.1,1.6,2.5C94.9,177.5,98.3,183.8,100,190"/>
<path class="st2" d="M10,100c6.2,1.7,12.5,5.1,16.1,7.7c1.4-0.3,2.1,0,2.5,1.6c6.6,4.3,8.3,8.2,11.6,13.4c-2.8-7.3-4.2-15-4.2-22.7
	H10c3.9-1.1,7.9-2.9,11.2-4.7l15-1c0.5-5.8,1.8-11.6,3.9-17c-3.3,5.2-5,9.1-11.6,13.4c-0.3,1.6-1.1,1.9-2.5,1.6
	C22.5,94.9,16.2,98.3,10,100"/>
<path class="st2" d="M100,10c-1.7,6.2-5.1,12.5-7.7,16.1c0.3,1.4,0,2.1-1.6,2.5c-4.3,6.6-8.2,8.3-13.4,11.6c7.3-2.8,15-4.2,22.7-4.2
	V10c1.1,3.9,2.9,7.9,4.7,11.2l1,15c5.8,0.5,11.6,1.8,17,3.9c-5.2-3.3-9.1-5-13.4-11.6c-1.6-0.3-1.9-1.1-1.6-2.5
	C105.1,22.5,101.7,16.2,100,10"/>
<path class="st2" d="M190,100c-6.2-1.7-12.5-5.1-16.1-7.7c-1.4,0.3-2.1,0-2.5-1.6c-6.6-4.3-8.3-8.2-11.6-13.4
	c2.8,7.3,4.2,15,4.2,22.7H190c-3.9,1.1-7.9,2.9-11.2,4.7l-15,1c-0.5,5.8-1.8,11.6-3.9,17c3.3-5.2,5-9.1,11.6-13.4
	c0.3-1.6,1.1-1.9,2.5-1.6C177.5,105.1,183.8,101.7,190,100"/>
<path class="st3" d="M36.4,163.6c5.6-3.2,12.4-5.2,16.8-5.9c0.8-1.2,1.5-1.5,2.9-0.6c7.7-1.6,11.7-0.1,17.7,1.2
	c-7.1-3.2-13.5-7.6-19-13.1L36.4,163.6c2-3.6,3.5-7.6,4.6-11.2l9.9-11.4c-3.8-4.5-6.9-9.5-9.3-14.8c1.3,6,2.9,10,1.2,17.7
	c0.9,1.4,0.6,2.1-0.6,2.9C41.6,151.2,39.5,158,36.4,163.6"/>
<path class="st3" d="M36.4,36.4c3.2,5.6,5.2,12.4,5.9,16.8c1.2,0.8,1.5,1.5,0.6,2.9c1.6,7.7,0.1,11.7-1.2,17.7
	c3.2-7.1,7.6-13.5,13.1-19L36.4,36.4c3.6,2,7.6,3.5,11.2,4.6l11.4,9.9c4.5-3.8,9.5-6.9,14.8-9.3c-6,1.3-10,2.9-17.7,1.2
	c-1.4,0.9-2.1,0.6-2.9-0.6C48.8,41.6,42,39.5,36.4,36.4"/>
<path class="st3" d="M163.6,163.6c-5.6-3.2-12.4-5.2-16.8-5.9c-0.8-1.2-1.5-1.5-2.9-0.6c-7.7-1.6-11.7-0.1-17.7,1.2
	c7.1-3.2,13.5-7.6,19-13.1L163.6,163.6c-2-3.6-3.5-7.6-4.6-11.2l-9.9-11.4c3.8-4.5,6.9-9.5,9.3-14.8c-1.3,6-2.9,10-1.2,17.7
	c-0.9,1.4-0.6,2.1,0.6,2.9C158.4,151.2,160.5,158,163.6,163.6"/>
<path class="st3" d="M163.6,36.4c-5.6,3.2-12.4,5.2-16.8,5.9c-0.8,1.2-1.5,1.5-2.9,0.6c-7.7,1.6-11.7,0.1-17.7-1.2
	c7.1,3.2,13.5,7.6,19,13.1L163.6,36.4c-2,3.6-3.5,7.6-4.6,11.2l-9.9,11.4c3.8,4.5,6.9,9.5,9.3,14.8c-1.3-6-2.9-10-1.2-17.7
	c-0.9-1.4-0.6-2.1,0.6-2.9C158.4,48.8,160.5,42,163.6,36.4"/>
</svg>
