<?xml version="1.0" encoding="utf-8"?>
<!-- Generator: Adobe Illustrator 26.5.0, SVG Export Plug-In . SVG Version: 6.00 Build 0)  -->
<svg version="1.2" baseProfile="tiny" id="Layer_1" xmlns="http://www.w3.org/2000/svg" xmlns:xlink="http://www.w3.org/1999/xlink"
	 x="0px" y="0px" width="200px" height="200px" viewBox="0 0 200 200" overflow="visible" xml:space="preserve">
<circle fill="#FFFFFF" stroke="#1A1A1A" stroke-width="0.2666667" stroke-linecap="round" stroke-miterlimit="2.6666667" cx="100" cy="100" r="83.3333359"/>
<circle fill="none" stroke="#1A1A1A" stroke-width="0.2666667" stroke-linecap="round" stroke-miterlimit="2.6666667" cx="100" cy="100" r="86"/>
<circle fill="none" stroke="#1A1A1A" stroke-width="0.2666667" stroke-linecap="round" stroke-miterlimit="2.6666667" cx="100" cy="100" r="61.3333321"/>
<circle fill="none" stroke="#1A1A1A" stroke-width="0.2666667" stroke-linecap="round" stroke-miterlimit="2.6666667" cx="100" cy="100" r="64"/>
<circle fill="none" stroke="#1A1A1A" stroke-width="0.2666667" stroke-linecap="round" stroke-miterlimit="2.6666667" cx="100" cy="100" r="55.3333321"/>
<circle fill="none" stroke="#1A1A1A" stroke-width="0.2666667" stroke-linecap="round" stroke-miterlimit="2.6666667" cx="100" cy="100" r="58"/>
<circle fill="none" stroke="#1A1A1A" stroke-width="0.2666667" stroke-linecap="round" stroke-miterlimit="2.6666667" cx="100" cy="100" r="33.3333321"/>
<circle fill="none" stroke="#1A1A1A" stroke-width="0.2666667" stroke-linecap="round" stroke-miterlimit="2.6666667" cx="100" cy="100" r="35.3333321"/>
<circle fill="none" stroke="#1A1A1A" stroke-width="0.2666667" stroke-linecap="round" stroke-miterlimit="2.6666667" cx="100" cy="100" r="28.666666"/>
<circle fill="none" stroke="#1A1A1A" stroke-width="0.2666667" stroke-linecap="round" stroke-miterlimit="2.6666667" cx="100" cy="100" r="30.666666"/>
<circle fill="none" stroke="#1A1A1A" stroke-width="0.2666667" stroke-linecap="round" stroke-miterlimit="2.6666667" cx="100" cy="100" r="12.333333"/>
<circle fill="none" stroke="#1A1A1A" stroke-width="0.2666667" stroke-linecap="round" stroke-miterlimit="2.6666667" cx="100" cy="100" r="14.333333"/>
<circle fill="none" stroke="#1A1A1A" stroke-width="0.2666667" stroke-linecap="round" stroke-miterlimit="2.6666667" cx="100" cy="100" r="9.333333"/>
<circle fill="none" stroke="#1A1A1A" stroke-width="0.2666667" stroke-linecap="round" stroke-miterlimit="2.6666667" cx="100" cy="100" r="5.3333335"/>
<circle fill="none" stroke="#7A7D7D" stroke-width="2.6666667" stroke-linecap="round" stroke-miterlimit="2.6666667" cx="100" cy="100" r="84.6666641"/>
<circle fill="none" stroke="#7A7D7D" stroke-width="2.6666667" stroke-linecap="round" stroke-miterlimit="2.6666667" cx="100" cy="100" r="62.6666679"/>
<circle fill="none" stroke="#7A7D7D" stroke-width="2.6666667" stroke-linecap="round" stroke-miterlimit="2.6666667" cx="100" cy="100" r="56.6666679"/>
<circle fill="none" stroke="#16697A" stroke-width="4" stroke-linecap="round" stroke-miterlimit="2.6666667" cx="100" cy="100" r="7.3333335"/>
<circle fill="none" stroke="#7A7D7D" stroke-width="2" stroke-linecap="round" stroke-miterlimit="2.6666667" cx="100" cy="100" r="34.3333321"/>
<circle fill="none" stroke="#7A7D7D" stroke-width="2" stroke-linecap="round" stroke-miterlimit="2.6666667" cx="100" cy="100" r="29.666666"/>
<circle fill="none" stroke="#7A7D7D" stroke-width="2" stroke-linecap="round" stroke-miterlimit="2.6666667" cx="100" cy="100" r="13.333333"/>
<path fill="#16697A" stroke="#1A1A1A" stroke-width="0.2666667" stroke-linecap="round" stroke-miterlimit="2.6666667" d="M100,190
	c1.7333298-6.1999969,5.1333389-12.4666595,7.7333298-16.0666656c-0.2666702-1.3999939,0-2.1333313,1.6000061-2.4666595
	c4.2666702-6.6000061,8.2000046-8.3333282,13.3999939-11.644455C115.4666595,162.577774,107.7555542,164,100,164V190
	c-1.1333313-3.9333344-2.8666611-7.8666687-4.6666641-11.1999969l-1-15.0444489
	c-5.8444443-0.5111084-11.5777817-1.8444519-17.0444489-3.9111176c5.1999969,3.3111267,9.1333313,5.0444489,13.3999939,11.644455
	c1.6000061,0.3333282,1.8666687,1.0666656,1.6000061,2.4666595C94.8666687,177.5333405,98.2666702,183.8000031,100,190"/>
<path fill="#16697A" stroke="#1A1A1A" stroke-width="0.2666667" stroke-linecap="round" stroke-miterlimit="2.6666667" d="M10,100
	c6.2000008,1.7333298,12.4666672,5.1333389,16.0666676,7.7333298c1.4000015-0.2666702,2.1333332,0,2.4666672,1.6000061
	c6.6000004,4.2666702,8.333334,8.2000046,11.6444492,13.3999939C37.4222221,115.4666595,36,107.7555542,36,100H10
	c3.9333334-1.1333313,7.8666668-2.8666611,11.2000008-4.6666641l15.044445-1
	c0.5111122-5.8444443,1.8444443-11.5777817,3.9111137-17.0444489c-3.3111115,5.1999969-5.044445,9.1333313-11.6444435,13.3999939
	c-0.333334,1.6000061-1.0666676,1.8666687-2.4666672,1.6000061C22.4666672,94.8666687,16.2000008,98.2666702,10,100"/>
<path fill="#16697A" stroke="#1A1A1A" stroke-width="0.2666667" stroke-linecap="round" stroke-miterlimit="2.6666667" d="M100,10
	c-1.7333298,6.2000008-5.1333313,12.4666672-7.7333298,16.0666676c0.2666702,1.4000015,0,2.1333332-1.6000061,2.4666672
	c-4.2666626,6.6000004-8.1999969,8.333334-13.3999939,11.6444492C84.5333328,37.4222221,92.2444458,36,100,36V10
	c1.1333389,3.9333334,2.8666687,7.8666668,4.6666641,11.2000008l1,15.044445
	c5.8444443,0.5111122,11.577774,1.8444443,17.0444489,3.9111137c-5.2000046-3.3111115-9.1333313-5.044445-13.3999939-11.6444435
	c-1.6000061-0.333334-1.8666687-1.0666676-1.6000061-2.4666672C105.1333389,22.4666672,101.7333298,16.2000008,100,10"/>
<path fill="#16697A" stroke="#1A1A1A" stroke-width="0.2666667" stroke-linecap="round" stroke-miterlimit="2.6666667" d="M190,100
	c-6.1999969-1.7333298-12.4666595-5.1333313-16.0666656-7.7333298c-1.3999939,0.2666702-2.1333313,0-2.4666595-1.6000061
	c-6.6000061-4.2666626-8.3333282-8.1999969-11.644455-13.3999939C162.577774,84.5333328,164,92.2444458,164,100H190
	c-3.9333344,1.1333389-7.8666687,2.8666687-11.1999969,4.6666641l-15.0444489,1
	c-0.5111084,5.8444443-1.8444519,11.577774-3.9111176,17.0444489c3.3111267-5.2000046,5.0444489-9.1333313,11.644455-13.3999939
	c0.3333282-1.6000061,1.0666656-1.8666687,2.4666595-1.6000061C177.5333405,105.1333389,183.8000031,101.7333298,190,100"/>
<path fill="#3E4E50" stroke="#1A1A1A" stroke-width="0.2666667" stroke-linecap="round" stroke-miterlimit="2.6666667" d="
	M36.3555565,163.644455c5.5999985-3.1555634,12.4444466-5.1777802,16.8222237-5.8888855
	c0.7999992-1.1777802,1.5111122-1.5111084,2.8666649-0.6222229c7.6888847-1.644455,11.6888847-0.0888977,17.7111092,1.2444305
	c-7.0888901-3.1777649-13.5333328-7.6222076-19.0222244-13.1110992L36.3555565,163.644455
	c1.9777756-3.577774,3.5333328-7.6000061,4.6222229-11.222229l9.9333344-11.355545
	c-3.7555542-4.4888916-6.8888893-9.4888916-9.2888908-14.8222275c1.3333321,6.0000076,2.8888893,10.0222244,1.2444458,17.711113
	c0.8888893,1.3777771,0.5555573,2.0666656-0.6222229,2.8666687
	C41.5555573,151.2000122,39.5111122,158.0222168,36.3555565,163.644455"/>
<path fill="#3E4E50" stroke="#1A1A1A" stroke-width="0.2666667" stroke-linecap="round" stroke-miterlimit="2.6666667" d="
	M36.3555565,36.3555565c3.1555557,5.5999985,5.1777802,12.4444466,5.8888893,16.8222237
	c1.1777802,0.7999992,1.5111122,1.5111122,0.6222229,2.8666649c1.6444435,7.6888847,0.0888863,11.6888847-1.2444458,17.7111092
	c3.1777802-7.0888901,7.6222229-13.5333328,13.1111107-19.0222244L36.3555565,36.3555565
	c3.5777817,1.9777756,7.5999985,3.5333328,11.2222214,4.6222229l11.3555603,9.9333344
	c4.4888916-3.7555542,9.4888878-6.8888893,14.8222237-9.2888908c-6,1.3333321-10.0222244,2.8888893-17.7111092,1.2444458
	c-1.3777771,0.8888893-2.0666695,0.5555573-2.8666687-0.6222229C48.8000031,41.5555573,41.9777756,39.5111122,36.3555565,36.3555565
	"/>
<path fill="#3E4E50" stroke="#1A1A1A" stroke-width="0.2666667" stroke-linecap="round" stroke-miterlimit="2.6666667" d="
	M163.644455,163.644455c-5.6000061-3.1555634-12.4444427-5.1777802-16.8222351-5.8888855
	c-0.7999878-1.1777802-1.5111084-1.5111084-2.8666687-0.6222229c-7.6888733-1.644455-11.6888733-0.0888977-17.711113,1.2444305
	c7.0888901-3.1777649,13.5333481-7.6222076,19.0222244-13.1110992L163.644455,163.644455
	c-1.9777832-3.577774-3.5333405-7.6000061-4.6222229-11.222229l-9.9333344-11.355545
	c3.7555542-4.4888916,6.8888855-9.4888916,9.2888794-14.8222275c-1.3333282,6.0000076-2.8888855,10.0222244-1.2444305,17.711113
	c-0.8888855,1.3777771-0.5555573,2.0666656,0.6222229,2.8666687
	C158.4444427,151.2000122,160.4888916,158.0222168,163.644455,163.644455"/>
<path fill="#3E4E50" stroke="#1A1A1A" stroke-width="0.2666667" stroke-linecap="round" stroke-miterlimit="2.6666667" d="
	M163.644455,36.3555565c-5.6000061,3.1555557-12.4444427,5.1777802-16.8222351,5.8888893
	c-0.7999878,1.1777802-1.5111084,1.5111122-2.8666687,0.6222229c-7.6888733,1.6444435-11.6888733,0.0888863-17.711113-1.2444458
	c7.0888901,3.1777802,13.5333481,7.6222229,19.0222244,13.1111107L163.644455,36.3555565
	c-1.9777832,3.5777817-3.5333405,7.5999985-4.6222229,11.2222214l-9.9333344,11.3555603
	c3.7555542,4.4888916,6.8888855,9.4888878,9.2888794,14.8222237c-1.3333282-6-2.8888855-10.0222244-1.2444305-17.7111092
	c-0.8888855-1.3777771-0.5555573-2.0666695,0.6222229-2.8666687
	C158.4444427,48.8000031,160.4888916,41.9777756,163.644455,36.3555565"/>
<path fill="#3E4E50" stroke="#0B0B0B" stroke-width="0.2666667" stroke-linecap="round" stroke-miterlimit="2.6666667" d="
	M100,124.3333359c1.1999969-5.1333313,2.7333298-8.2666702,5.4888916-11.0888901
	c-3.5111084,1.4444351-7.4666672,1.4444351-10.9777756,0C97.2666702,116.0666656,98.8000031,119.2000046,100,124.3333359"/>
<path fill="#3E4E50" stroke="#0B0B0B" stroke-width="0.2666667" stroke-linecap="round" stroke-miterlimit="2.6666667" d="
	M75.6666641,100c5.1333389,1.1999969,8.2666702,2.7333298,11.0888901,5.4888916
	c-1.4444427-3.5111084-1.4444427-7.4666672,0-10.9777756C83.9333344,97.2666702,80.8000031,98.8000031,75.6666641,100"/>
<path fill="#3E4E50" stroke="#0B0B0B" stroke-width="0.2666667" stroke-linecap="round" stroke-miterlimit="2.6666667" d="
	M124.3333359,100c-5.1333313-1.1999969-8.2666702-2.7333298-11.0888901-5.4888916
	c1.4444351,3.5111084,1.4444351,7.4666672,0,10.9777756C116.0666656,102.7333298,119.2000046,101.1999969,124.3333359,100"/>
<path fill="#3E4E50" stroke="#0B0B0B" stroke-width="0.2666667" stroke-linecap="round" stroke-miterlimit="2.6666667" d="
	M82.8000031,117.2000046c4.4888916-2.7777786,7.7777786-3.9111099,11.711113-3.9555511
	c-3.5111084-1.4444427-6.3111115-4.2444458-7.7555542-7.7555542
	C86.711113,109.4222183,85.5777817,112.7333298,82.8000031,117.2000046"/>
<path fill="#3E4E50" stroke="#0B0B0B" stroke-width="0.2666667" stroke-linecap="round" stroke-miterlimit="2.6666667" d="
	M82.8000031,82.8000031c2.7777786,4.4888916,3.9111099,7.7777786,3.9555511,11.711113
	C88.1999969,91.0000076,91,88.2000046,94.5111084,86.7555618C90.5777817,86.711113,87.2666702,85.5777817,82.8000031,82.8000031"/>
<path fill="#3E4E50" stroke="#0B0B0B" stroke-width="0.2666667" stroke-linecap="round" stroke-miterlimit="2.6666667" d="
	M117.2000046,82.8000031c-4.4888916,2.7777786-7.7777786,3.9111099-11.711113,3.9555511
	C109,88.1999969,111.8000031,91,113.2444458,94.5111084C113.288887,90.5777817,114.422226,87.2666702,117.2000046,82.8000031"/>
<g id="t0_00000158006963331505037270000007943618719731740852_">
	<path fill="#3E4E50" stroke="#0B0B0B" stroke-width="0.2666667" stroke-linecap="round" stroke-miterlimit="2.6666667" d="
		M117.2000046,117.2000046c-2.7777786-4.4888916-3.9111099-7.7777786-3.9555511-11.711113
		c-1.4444427,3.5111084-4.2444458,6.3111115-7.7555542,7.7555542
		C109.4222183,113.288887,112.7333298,114.422226,117.2000046,117.2000046"/>
</g>
<path fill="#DB504A" stroke="#1A1A1A" stroke-width="0.2666667" stroke-linecap="round" stroke-miterlimit="2.6666667" d="
	M79.6000061,149.2666779c5.3333282-9.2000122,6.3333282-11.444458,9.4888916-15.6666718
	c-1.7555542-0.577774-3.4666672-1.2888947-5.1111145-2.1111145C83.1999969,136.7111206,82.3333359,139,79.6000061,149.2666779"/>
<path fill="#DB504A" stroke="#1A1A1A" stroke-width="0.2666667" stroke-linecap="round" stroke-miterlimit="2.6666667" d="
	M50.7333336,120.4000015C61,117.6666641,63.3111115,116.7777786,68.5111084,116.0222168
	c-0.8444443-1.6444473-1.5555573-3.3555527-2.1111069-5.1111069
	C62.1777763,114.0888977,59.9111137,115.0888977,50.7333336,120.4000015"/>
<path fill="#DB504A" stroke="#1A1A1A" stroke-width="0.2666667" stroke-linecap="round" stroke-miterlimit="2.6666667" d="
	M50.7333336,79.6000061c9.2000046,5.3333282,11.4444427,6.3333282,15.6666679,9.4888916
	c0.577774-1.7555542,1.2888794-3.4666672,2.1111069-5.1111145C63.288887,83.1999969,61,82.3333359,50.7333336,79.6000061"/>
<path fill="#DB504A" stroke="#1A1A1A" stroke-width="0.2666667" stroke-linecap="round" stroke-miterlimit="2.6666667" d="
	M79.6000061,50.7333336C82.3333359,61,83.2222214,63.3111115,83.9777832,68.5111084
	c1.6444473-0.8444443,3.3555603-1.5555573,5.1111145-2.1111069C85.9111099,62.1777763,84.9111099,59.9111137,79.6000061,50.7333336"
	/>
<path fill="#DB504A" stroke="#1A1A1A" stroke-width="0.2666667" stroke-linecap="round" stroke-miterlimit="2.6666667" d="
	M120.4000015,149.2666779c-2.7333374-10.2666779-3.6222229-12.577774-4.3777847-17.7777863
	c-1.6444473,0.8444366-3.3555527,1.5555573-5.1111069,2.1111145
	C114.0888977,137.8222198,115.0888977,140.0888977,120.4000015,149.2666779"/>
<path fill="#DB504A" stroke="#1A1A1A" stroke-width="0.2666667" stroke-linecap="round" stroke-miterlimit="2.6666667" d="
	M149.2666779,120.4000015c-9.2000122-5.3333359-11.444458-6.3333359-15.6666718-9.4888916
	c-0.577774,1.7555542-1.2888947,3.4666595-2.1111145,5.1111069C136.7111206,116.7999954,139,117.6666641,149.2666779,120.4000015"/>
<path fill="#DB504A" stroke="#1A1A1A" stroke-width="0.2666667" stroke-linecap="round" stroke-miterlimit="2.6666667" d="
	M120.4000015,50.7333336c-5.3333359,9.2000046-6.3333359,11.4444427-9.4888916,15.6666679
	c1.7555542,0.577774,3.4666595,1.2888794,5.1111069,2.1111069C116.7999954,63.288887,117.6666641,61,120.4000015,50.7333336"/>
<path fill="#DB504A" stroke="#1A1A1A" stroke-width="0.2666667" stroke-linecap="round" stroke-miterlimit="2.6666667" d="
	M149.2666779,79.6000061C139,82.3333359,136.6889038,83.2222214,131.4888916,83.9777832
	c0.8444366,1.6444473,1.5555573,3.3555603,2.1111145,5.1111145
	C137.8222198,85.9111099,140.0888977,84.9111099,149.2666779,79.6000061"/>
<polygon fill="#16697A" stroke="#1A1A1A" stroke-width="0.2666667" stroke-linecap="round" stroke-miterlimit="2.6666667" points="
	100,76.8666687 95.3333359,77 98,64.6666641 100,46 102,64.6666641 104.6666641,77 "/>
<path fill="#3E4E50" stroke="#0B0B0B" stroke-width="0.2666667" stroke-linecap="round" stroke-miterlimit="2.6666667" d="
	M100,75.6666641c-1.1999969,5.1333389-2.7333298,8.2666702-5.4888916,11.0888901
	c3.5111084-1.4444427,7.4666672-1.4444427,10.9777756,0C102.7333298,83.9333344,101.1999969,80.8000031,100,75.6666641"/>
</svg>
