<?xml version="1.0" encoding="utf-8"?>
<!-- Generator: Adobe Illustrator 26.5.0, SVG Export Plug-In . SVG Version: 6.00 Build 0)  -->
<svg version="1.1" id="Credits" xmlns="http://www.w3.org/2000/svg" xmlns:xlink="http://www.w3.org/1999/xlink" x="0px" y="0px"
	 viewBox="0 0 128 128" style="enable-background:new 0 0 128 128;" xml:space="preserve">
<style type="text/css">
	.st0{fill:#7B7D7E;stroke:#000000;stroke-width:0.6687;stroke-miterlimit:2.6667;}
</style>
<g>
	<path class="st0" d="M94.7,88.8c-5.4,7.1-14.8,12.1-25.3,12.1c-24.9,0-36-18.2-36-36.5c0-18.6,13-37.3,36-37.3c9.8,0,18.1,3,23.8,8
		c-1.8,7.1-5,10-8.9,10c-6.9,0-11.9-6.9-12.7-13.4c-15.5,0-24.3,16.6-24.3,32.6C47.3,79,55.2,93,72.1,93c7.5,0,13.7-2.9,19.5-7.4
		L94.7,88.8z"/>
</g>
</svg>
