<?xml version="1.0" encoding="utf-8"?>
<!-- Generator: Adobe Illustrator 26.5.0, SVG Export Plug-In . SVG Version: 6.00 Build 0)  -->
<svg version="1.2" baseProfile="tiny" id="Layer_1" xmlns="http://www.w3.org/2000/svg" xmlns:xlink="http://www.w3.org/1999/xlink"
	 x="0px" y="0px" width="128px" height="128px" viewBox="0 0 128 128" overflow="visible" xml:space="preserve">
<g>
	<path fill="#7B7D7E" stroke="#000000" stroke-width="0.666" stroke-miterlimit="2.6666667" d="M6.6046753,64
		c0,31.6985474,25.6967773,57.3952637,57.3953247,57.3952637S121.3953247,95.6985474,121.3953247,64
		S95.6985474,6.6046753,64,6.6046753S6.6046753,32.3014526,6.6046753,64z M10.8562012,64
		c0-29.3505249,23.7932739-53.1437988,53.1437988-53.1437988S117.1437988,34.6494751,117.1437988,64
		c0,29.3504639-23.7932739,53.1437988-53.1437988,53.1437988S10.8562012,93.3504639,10.8562012,64z"/>
	<g>
		<path fill="#7B7D7E" stroke="#000000" stroke-width="0.6687" stroke-miterlimit="2.6666667" d="M41.7954369,85.6425781
			c5.7314453,4.5244141,11.9150391,7.3896484,19.4560547,7.3896484c16.8911171,0,24.7334023-14.0253906,24.7334023-28.8056641
			c0-15.9873047-8.7470703-32.5771484-24.2812538-32.5771484c-0.7539062,6.4848633-5.7314453,13.4228516-12.6689453,13.4228516
			c-3.9208984,0-7.0878906-2.8657227-8.8984375-9.9541016C45.8677025,30.1411133,54.1626244,27.125,63.9663353,27.125
			c23.0742226,0,36.0449257,18.7011719,36.0449257,37.2519531c0,18.2490234-11.1606445,36.4980469-36.0449257,36.4980469
			c-10.5576172,0-19.9082031-4.9765625-25.3378906-12.0654297L41.7954369,85.6425781z"/>
	</g>
</g>
</svg>
