<?xml version="1.0" encoding="utf-8"?>
<!-- Generator: Adobe Illustrator 26.5.0, SVG Export Plug-In . SVG Version: 6.00 Build 0)  -->
<svg version="1.2" baseProfile="tiny" id="Decrement" xmlns="http://www.w3.org/2000/svg" xmlns:xlink="http://www.w3.org/1999/xlink"
	 x="0px" y="0px" width="29px" height="29px" viewBox="0 0 29 29" overflow="visible" xml:space="preserve">
<g>
	<path fill="#DB514A" d="M14.4999981,28.5617065c-7.753418,0-14.0615234-6.3085938-14.0615234-14.0615234
		c0-7.7539062,6.3081055-14.0625,14.0615234-14.0625c7.7539062,0,14.0625,6.3085938,14.0625,14.0625
		C28.5624981,22.2531128,22.2539043,28.5617065,14.4999981,28.5617065z M14.4999981,4.2384644
		c-5.6582031,0-10.2617188,4.6035156-10.2617188,10.2617188S8.841795,24.7609253,14.4999981,24.7609253
		s10.2617188-4.6025391,10.2617188-10.2607422S20.1582012,4.2384644,14.4999981,4.2384644z"/>
	<path fill="#191919" d="M14.4999981,0.5382614c7.6985321,0,13.9617386,6.2632065,13.9617386,13.9617386
		s-6.2632065,13.9617462-13.9617386,13.9617462S0.5382595,22.1985321,0.5382595,14.5S6.8014698,0.5382614,14.4999981,0.5382614
		 M14.4999981,24.8617401c5.7134781,0,10.3617401-4.6482544,10.3617401-10.3617401S20.2134762,4.1382599,14.4999981,4.1382599
		S4.138258,8.7865143,4.138258,14.5S8.7865162,24.8617401,14.4999981,24.8617401 M14.4999981,0.3382568
		C6.678709,0.3382568,0.3382587,6.6786499,0.3382587,14.5c0,7.8212891,6.3404503,14.1617432,14.1617393,14.1617432
		S28.6617413,22.3212891,28.6617413,14.5C28.6617413,6.6786499,22.3212872,0.3382568,14.4999981,0.3382568L14.4999981,0.3382568z
		 M14.4999981,24.6617432c-5.6121788,0-10.1617393-4.5495605-10.1617393-10.1617432S8.8878193,4.3382568,14.4999981,4.3382568
		S24.6617413,8.8878174,24.6617413,14.5S20.1121807,24.6617432,14.4999981,24.6617432L14.4999981,24.6617432z"/>
</g>
</svg>
