<?xml version="1.0" encoding="utf-8"?>
<!-- Generator: Adobe Illustrator 26.5.0, SVG Export Plug-In . SVG Version: 6.00 Build 0)  -->
<svg version="1.1" id="Empty" xmlns="http://www.w3.org/2000/svg" xmlns:xlink="http://www.w3.org/1999/xlink" x="0px" y="0px"
	 viewBox="0 0 46 46" enable-background="new 0 0 46 46" xml:space="preserve">
<g>
	<path fill="#7C7E7F" d="M23.0000019,45.8160133c-12.5805664,0-22.8154297-10.2353516-22.8154297-22.8164062
		c0-12.5800781,10.2348633-22.8149414,22.8154297-22.8149414c12.5800762,0,22.8154278,10.2348633,22.8154278,22.8149414
		C45.8154297,35.5806618,35.5800781,45.8160133,23.0000019,45.8160133z M23.0000019,3.9844704
		c-10.4853516,0-19.015625,8.5297852-19.015625,19.0151367s8.5302734,19.015625,19.015625,19.015625
		s19.0146465-8.5302734,19.0146465-19.015625S33.4853516,3.9844704,23.0000019,3.9844704z"/>
	<path fill="#191919" d="M23.0000019,0.284565c12.5253506,0,22.7154675,10.1900864,22.7154675,22.7154083
		c0,12.5253525-10.1901169,22.7154694-22.7154675,22.7154694S0.2845325,35.5253258,0.2845325,22.9999733
		C0.2845325,10.4746513,10.4746532,0.284565,23.0000019,0.284565 M23.0000019,42.1153755
		c10.5403118,0,19.115469-8.5751343,19.115469-19.1154022c0-10.5403061-8.5751572-19.1154709-19.115469-19.1154709
		S3.884531,12.4596672,3.884531,22.9999733C3.884531,33.5402412,12.459692,42.1153755,23.0000019,42.1153755 M23.0000019,0.0845604
		c-12.6558189,0-22.9154701,10.2595901-22.9154701,22.9154129c0,12.6558838,10.2596512,22.9154663,22.9154701,22.9154663
		s22.9154644-10.2595825,22.9154644-22.9154663C45.9154663,10.3441505,35.6558228,0.0845604,23.0000019,0.0845604
		L23.0000019,0.0845604z M23.0000019,41.9153786c-10.4467201,0-18.9154701-8.4686813-18.9154701-18.9154053
		S12.5532818,4.084507,23.0000019,4.084507s18.9154644,8.46875,18.9154644,18.9154663S33.4467163,41.9153786,23.0000019,41.9153786
		L23.0000019,41.9153786z"/>
</g>
</svg>
