<?xml version="1.0" encoding="utf-8"?>
<!-- Generator: Adobe Illustrator 26.5.0, SVG Export Plug-In . SVG Version: 6.00 Build 0)  -->
<svg version="1.1" id="Layer_1" xmlns="http://www.w3.org/2000/svg" xmlns:xlink="http://www.w3.org/1999/xlink" x="0px" y="0px"
	 width="32px" height="32px" viewBox="0 0 32 32" style="enable-background:new 0 0 32 32;" xml:space="preserve">
<style type="text/css">
	.st0{fill:#FFFFFF;}
	.st1{fill:none;stroke:#1A1A1A;stroke-width:0.1644;stroke-linecap:round;stroke-miterlimit:2.6667;}
	.st2{fill:none;stroke:#186A7A;stroke-width:2.4658;stroke-linecap:round;stroke-miterlimit:2.6667;}
	.st3{fill:#3F4F51;stroke:#0D0D0D;stroke-width:0.1644;stroke-linecap:round;stroke-miterlimit:2.6667;}
</style>
<circle class="st0" cx="16" cy="16" r="8.9"/>
<g>
	<circle class="st1" cx="16" cy="16" r="7.6"/>
	<circle class="st1" cx="16" cy="16" r="3.3"/>
	<circle class="st2" cx="16" cy="16" r="4.5"/>
	<path class="st3" d="M16,31c0.7-3.2,1.7-5.1,3.4-6.8c-2.2,0.9-4.6,0.9-6.8,0C14.3,25.9,15.3,27.8,16,31"/>
	<path class="st3" d="M1,16c3.2,0.7,5.1,1.7,6.8,3.4c-0.9-2.2-0.9-4.6,0-6.8C6.1,14.3,4.2,15.3,1,16"/>
	<path class="st3" d="M31,16c-3.2-0.7-5.1-1.7-6.8-3.4c0.9,2.2,0.9,4.6,0,6.8C25.9,17.7,27.8,16.7,31,16"/>
	<path class="st3" d="M5.4,26.6c2.8-1.7,4.8-2.4,7.2-2.4c-2.2-0.9-3.9-2.6-4.8-4.8C7.8,21.8,7.1,23.8,5.4,26.6"/>
	<path class="st3" d="M5.4,5.4c1.7,2.8,2.4,4.8,2.4,7.2c0.9-2.2,2.6-3.9,4.8-4.8C10.2,7.8,8.2,7.1,5.4,5.4"/>
	<path class="st3" d="M26.6,5.4c-2.8,1.7-4.8,2.4-7.2,2.4c2.2,0.9,3.9,2.6,4.8,4.8C24.2,10.2,24.9,8.2,26.6,5.4"/>
	<g id="t0_00000158006963331505037270000007943618719731740852_">
		<path class="st3" d="M26.6,26.6c-1.7-2.8-2.4-4.8-2.4-7.2c-0.9,2.2-2.6,3.9-4.8,4.8C21.8,24.2,23.8,24.9,26.6,26.6"/>
	</g>
	<path class="st3" d="M16,1c-0.7,3.2-1.7,5.1-3.4,6.8c2.2-0.9,4.6-0.9,6.8,0C17.7,6.1,16.7,4.2,16,1"/>
</g>
</svg>
