<?xml version="1.0" encoding="utf-8"?>
<!-- Generator: Adobe Illustrator 26.5.0, SVG Export Plug-In . SVG Version: 6.00 Build 0)  -->
<svg version="1.2" baseProfile="tiny" id="HarmonicController" xmlns="http://www.w3.org/2000/svg" xmlns:xlink="http://www.w3.org/1999/xlink"
	 x="0px" y="0px" width="128px" height="192px" viewBox="0 0 128 192" overflow="visible" xml:space="preserve">
<g>
	<g>
		<path fill="#7B7D7E" d="M64,137.3574219c-12.5805664,0-22.8154297-10.2353516-22.8154297-22.8164062
			c0-12.5800781,10.2348633-22.8149414,22.8154297-22.8149414c12.5800781,0,22.8154297,10.2348633,22.8154297,22.8149414
			C86.8154297,127.1220703,76.5800781,137.3574219,64,137.3574219z M64,95.5258789
			c-10.4853516,0-19.015625,8.5297852-19.015625,19.0151367S53.5146484,133.5566406,64,133.5566406
			s19.0146484-8.5302734,19.0146484-19.015625S74.4853516,95.5258789,64,95.5258789z"/>
		<path fill="#191919" d="M64,91.8259735c12.5253525,0,22.7154694,10.1900864,22.7154694,22.7154083
			c0,12.5253525-10.1901169,22.7154694-22.7154694,22.7154694s-22.7154694-10.1901169-22.7154694-22.7154694
			C41.2845306,102.0160599,51.4746513,91.8259735,64,91.8259735 M64,133.6567841
			c10.5403137,0,19.1154709-8.5751343,19.1154709-19.1154022c0-10.5403061-8.5751572-19.1154709-19.1154709-19.1154709
			s-19.1154709,8.5751648-19.1154709,19.1154709C44.8845291,125.0816498,53.4596901,133.6567841,64,133.6567841 M64,91.6259689
			c-12.6558189,0-22.9154701,10.2595901-22.9154701,22.9154129c0,12.6558838,10.2596512,22.9154663,22.9154701,22.9154663
			s22.9154663-10.2595825,22.9154663-22.9154663C86.9154663,101.8855591,76.6558228,91.6259689,64,91.6259689L64,91.6259689z
			 M64,133.4567871c-10.4467201,0-18.9154701-8.4686813-18.9154701-18.9154053S53.5532799,95.6259155,64,95.6259155
			s18.9154663,8.46875,18.9154663,18.9154663S74.4467163,133.4567871,64,133.4567871L64,133.4567871z"/>
	</g>
	<circle fill="#FFFFFF" cx="64" cy="77.4613953" r="36"/>
	<g>
		<path fill="#17697A" d="M64,114.4414062c-20.3911133,0-36.9799805-16.5898438-36.9799805-36.9799805
			c0-20.3911133,16.5888672-36.9799805,36.9799805-36.9799805c20.390625,0,36.9804688,16.5888672,36.9804688,36.9799805
			C100.9804688,97.8515625,84.390625,114.4414062,64,114.4414062z M64,44.28125
			c-18.2954102,0-33.1801758,14.8847656-33.1801758,33.1801758S45.7045898,110.640625,64,110.640625
			c18.2958984,0,33.1796875-14.8837891,33.1796875-33.1791992S82.2958984,44.28125,64,44.28125z"/>
		<path fill="#191919" d="M64,40.5814056c20.3357086,0,36.8800201,16.544281,36.8800201,36.8799591
			c0,20.3357086-16.5443115,36.8800201-36.8800201,36.8800201S27.1199799,97.7970734,27.1199799,77.4613647
			C27.1199799,57.1256866,43.6642914,40.5814056,64,40.5814056 M64,110.7413864
			c18.3506699,0,33.2800217-14.9293518,33.2800217-33.2800217c0-18.3506279-14.9293518-33.2799606-33.2800217-33.2799606
			S30.7199802,59.1107368,30.7199802,77.4613647C30.7199802,95.8120346,45.6493301,110.7413864,64,110.7413864 M64,40.3814049
			c-20.4786987,0-37.0800209,16.6012611-37.0800209,37.0799599c0,20.4787598,16.6013222,37.0800171,37.0800209,37.0800171
			s37.0800171-16.6012573,37.0800171-37.0800171C101.0800171,56.982666,84.4786987,40.3814049,64,40.3814049L64,40.3814049z
			 M64,110.5413818c-18.2695885,0-33.0800209-14.8104248-33.0800209-33.0800171
			c0-18.2695312,14.8104324-33.0799599,33.0800209-33.0799599s33.0800171,14.8104286,33.0800171,33.0799599
			C97.0800171,95.730957,82.2695923,110.5413818,64,110.5413818L64,110.5413818z"/>
	</g>
	<circle fill="#FFFFFF" cx="64" cy="137.4568481" r="14"/>
	<g>
		<path fill="#DB504A" d="M64,151.5185547c-7.753418,0-14.0615234-6.3085938-14.0615234-14.0615234
			c0-7.7539062,6.3081055-14.0625,14.0615234-14.0625c7.7539062,0,14.0625,6.3085938,14.0625,14.0625
			C78.0625,145.2099609,71.7539062,151.5185547,64,151.5185547z M64,127.1953125
			c-5.6582031,0-10.2617188,4.6035156-10.2617188,10.2617188S58.3417969,147.7177734,64,147.7177734
			s10.2617188-4.6025391,10.2617188-10.2607422S69.6582031,127.1953125,64,127.1953125z"/>
		<path fill="#191919" d="M64,123.4951096c7.6985321,0,13.9617386,6.2632065,13.9617386,13.9617386
			S71.6985321,151.4185944,64,151.4185944s-13.9617386-6.2632141-13.9617386-13.9617462S56.3014717,123.4951096,64,123.4951096
			 M64,147.8185883c5.7134781,0,10.3617401-4.6482544,10.3617401-10.3617401S69.7134781,127.095108,64,127.095108
			s-10.3617401,4.6482544-10.3617401,10.3617401S58.2865181,147.8185883,64,147.8185883 M64,123.295105
			c-7.8212891,0-14.1617393,6.3403931-14.1617393,14.1617432c0,7.8212891,6.3404503,14.1617432,14.1617393,14.1617432
			s14.1617432-6.3404541,14.1617432-14.1617432C78.1617432,129.635498,71.8212891,123.295105,64,123.295105L64,123.295105z
			 M64,147.6185913c-5.6121788,0-10.1617393-4.5495605-10.1617393-10.1617432S58.3878212,127.295105,64,127.295105
			s10.1617432,4.5495605,10.1617432,10.1617432S69.6121826,147.6185913,64,147.6185913L64,147.6185913z"/>
	</g>
</g>
</svg>
