<?xml version="1.0" encoding="utf-8"?>
<!-- Generator: Adobe Illustrator 26.5.0, SVG Export Plug-In . SVG Version: 6.00 Build 0)  -->
<svg version="1.2" baseProfile="tiny" id="Layer_1" xmlns="http://www.w3.org/2000/svg" xmlns:xlink="http://www.w3.org/1999/xlink"
	 x="0px" y="0px" width="128px" height="192px" viewBox="0 0 128 192" overflow="visible" xml:space="preserve">
<path fill="#7B7D7E" d="M64,94.041626c11.303627,0,20.4997864,9.1961594,20.4997864,20.4997711
	c0,11.303627-9.1961594,20.4997864-20.4997864,20.4997864c-11.3036118,0-20.4997749-9.1961594-20.4997749-20.4997864
	C43.5002251,103.2377853,52.6963882,94.041626,64,94.041626 M64,91.6259689
	c-12.6558456,0-22.9154358,10.2595825-22.9154358,22.9154282S51.3441544,137.4568481,64,137.4568481
	s22.9154434-10.2595978,22.9154434-22.915451S76.6558456,91.6259689,64,91.6259689L64,91.6259689z"/>
<g>
	<circle fill="#FFFFFF" cx="64" cy="77.4613037" r="35.8173218"/>
	<path fill="#17697A" d="M64,42.9068184c19.0534592,0,34.5545883,15.5011215,34.5545883,34.5545845
		S83.0534592,112.0159912,64,112.0159912S29.4454155,96.5148621,29.4454155,77.4614029S44.946537,42.9068184,64,42.9068184
		 M64,40.3814011c-20.4787216,0-37.0800018,16.6012955-37.0800018,37.0800018S43.5212784,114.5414047,64,114.5414047
		s37.0800018-16.6012802,37.0800018-37.0800018S84.4787216,40.3814011,64,40.3814011L64,40.3814011z"/>
</g>
<g>
	<path fill="#FFFFFF" d="M64,150.4433594c-7.1611328,0-12.9868164-5.8261719-12.9868164-12.9863281
		c0-7.1611328,5.8256836-12.9873047,12.9868164-12.9873047s12.9873047,5.8261719,12.9873047,12.9873047
		C76.9873047,144.6171875,71.1611328,150.4433594,64,150.4433594z"/>
	<path fill="#DB504A" d="M64,125.6448975c6.5131302,0,11.8119507,5.2988281,11.8119507,11.8119507
		S70.5131302,149.2687836,64,149.2687836s-11.8119507-5.2988129-11.8119507-11.8119354S57.4868698,125.6448975,64,125.6448975
		 M64,123.2950974c-7.8213196,0-14.1617508,6.3404312-14.1617508,14.1617508S56.1786804,151.6185913,64,151.6185913
		s14.1617508-6.3404236,14.1617508-14.1617432S71.8213196,123.2950974,64,123.2950974L64,123.2950974z"/>
</g>
</svg>
