<?xml version="1.0" encoding="utf-8"?>
<!-- Generator: Adobe Illustrator 26.5.0, SVG Export Plug-In . SVG Version: 6.00 Build 0)  -->
<svg version="1.2" baseProfile="tiny" id="Layer_1" xmlns="http://www.w3.org/2000/svg" xmlns:xlink="http://www.w3.org/1999/xlink"
	 x="0px" y="0px" width="75px" height="75px" viewBox="0 0 75 75" overflow="visible" xml:space="preserve">
<g>
	<path fill="#1B6A7A" d="M37.5,74.480011c-20.3911114,0-36.9799805-16.5898438-36.9799805-36.9799805
		C0.5200214,17.1089191,17.1088886,0.520052,37.5,0.520052c20.390625,0,36.9804688,16.5888672,36.9804688,36.9799805
		C74.4804688,57.8901672,57.890625,74.480011,37.5,74.480011z M37.5,4.3198566
		c-18.2954082,0-33.1801758,14.8847656-33.1801758,33.1801758S19.2045918,70.6792297,37.5,70.6792297
		c18.2958984,0,33.1796875-14.8837891,33.1796875-33.1791992S55.7958984,4.3198566,37.5,4.3198566z"/>
	<path fill="#191919" d="M37.5,0.6200123c20.3357086,0,36.8800201,16.544281,36.8800201,36.8799591
		c0,20.3357086-16.5443115,36.8800201-36.8800201,36.8800201S0.6199818,57.8356781,0.6199818,37.4999695
		C0.6199818,17.1642933,17.1642933,0.6200123,37.5,0.6200123 M37.5,70.7799911
		c18.3506699,0,33.2800217-14.9293518,33.2800217-33.2800217c0-18.350626-14.9293518-33.2799606-33.2800217-33.2799606
		S4.2199821,19.1493435,4.2199821,37.4999695C4.2199821,55.8506393,19.149332,70.7799911,37.5,70.7799911 M37.5,0.4200115
		c-20.4786968,0-37.0800171,16.6012611-37.0800171,37.0799561c0,20.4787598,16.6013222,37.0800171,37.0800171,37.0800171
		s37.0800171-16.6012573,37.0800171-37.0800171C74.5800171,17.0212727,57.9786987,0.4200115,37.5,0.4200115L37.5,0.4200115z
		 M37.5,70.5799866c-18.2695866,0-33.0800171-14.8104248-33.0800171-33.0800171
		C4.419981,19.2304401,19.2304134,4.4200115,37.5,4.4200115s33.0800171,14.8104286,33.0800171,33.0799561
		C70.5800171,55.7695618,55.7695923,70.5799866,37.5,70.5799866L37.5,70.5799866z"/>
</g>
</svg>
