<?xml version="1.0" encoding="utf-8"?>
<!-- Generator: Adobe Illustrator 26.5.0, SVG Export Plug-In . SVG Version: 6.00 Build 0)  -->
<svg version="1.2" baseProfile="tiny" id="Questions" xmlns="http://www.w3.org/2000/svg" xmlns:xlink="http://www.w3.org/1999/xlink"
	 x="0px" y="0px" width="128px" height="128px" viewBox="0 0 128 128" overflow="visible" xml:space="preserve">
<g>
	<path fill="#7B7D7E" stroke="#000000" stroke-width="0.6687124" stroke-miterlimit="2.6666667" d="M68.2226562,67.0166016
		l-2.2626953,1.2060547v12.6689453l-8.4453125,2.5644531l-6.0332031-21.1152344l7.0888672-3.1669922
		c12.2158203-5.4296875,17.7958984-15.8359375,17.7958984-25.0356445c0-9.5019531-6.0322266-17.796875-16.4384766-17.796875
		c-0.7543945,0-1.6591797,0.1508789-2.4130859,0.3017578c-2.2626953,4.8261719-6.6362305,11.9145508-12.8198242,11.9145508
		c-3.9213867,0-7.0883789-2.8657227-8.8979492-9.9541016c5.730957-4.9770508,14.1767578-7.9931641,23.9799805-7.9931641
		c20.3598633,0,31.2192383,11.4624023,31.2192383,24.7338867C90.9960938,46.3540039,83.6054688,58.8720703,68.2226562,67.0166016z
		 M61.284668,117.3896484c-5.5800781,0-9.9536133-4.2226562-9.9536133-9.5009766
		c0-5.2792969,4.3735352-9.9541016,9.9536133-9.9541016c5.5805664,0,10.1049805,4.6748047,10.1049805,9.9541016
		C71.3896484,113.1669922,66.8652344,117.3896484,61.284668,117.3896484z"/>
</g>
</svg>
