<?xml version="1.0" encoding="utf-8"?>
<!-- Generator: Adobe Illustrator 26.5.0, SVG Export Plug-In . SVG Version: 6.00 Build 0)  -->
<svg version="1.1" id="Questions" xmlns="http://www.w3.org/2000/svg" xmlns:xlink="http://www.w3.org/1999/xlink" x="0px" y="0px"
	 viewBox="0 0 128 128" style="enable-background:new 0 0 128 128;" xml:space="preserve">
<style type="text/css">
	.st0{fill:#7B7D7E;stroke:#000000;stroke-width:0.5629191;stroke-miterlimit:2.6666667;}
	.st1{fill:#7B7D7E;stroke:#000000;stroke-width:0.666;stroke-miterlimit:2.6666667;}
</style>
<path class="st0" d="M69.9136734,68.0535126l-1.9047241,1.0152512v10.6646576l-7.1092262,2.1587448l-5.0787239-17.774704
	l5.9673767-2.6659622c10.283226-4.5706902,14.9805069-13.3306236,14.9805069-21.0748978
	c0-7.9986992-5.0779037-14.981329-13.8378372-14.981329c-0.6350441,0-1.3966904,0.1270103-2.0313225,0.2540188
	c-1.9047279,4.0626507-5.5863495,10.0296173-10.7916718,10.0296173c-3.3010063,0-5.9669647-2.4123535-7.4902534-8.3793201
	c4.824295-4.1896591,11.9339294-6.7286091,20.1862411-6.7286091c17.1388397,0,26.2802124,9.6489983,26.2802124,20.8208771
	C89.0842514,50.6598282,82.8628616,61.1974792,69.9136734,68.0535126z M64.0733109,108.4573212
	c-4.6972885,0-8.3789101-3.5546188-8.3789101-7.9978867c0-4.4440842,3.6816216-8.3793182,8.3789101-8.3793182
	c4.6976929,0,8.5063248,3.9352341,8.5063248,8.3793182C72.5796356,104.9027023,68.7710037,108.4573212,64.0733109,108.4573212z"/>
<path class="st1" d="M6.6046753,64.0000305c0,31.6985474,25.6967773,57.3952637,57.3953247,57.3952637
	s57.3953247-25.6967163,57.3953247-57.3952637S95.6985474,6.6047058,64,6.6047058S6.6046753,32.3014832,6.6046753,64.0000305z
	 M10.8562012,64.0000305c0-29.3505249,23.7932739-53.1437988,53.1437988-53.1437988s53.1437988,23.7932739,53.1437988,53.1437988
	c0,29.3504639-23.7932739,53.1437988-53.1437988,53.1437988S10.8562012,93.3504944,10.8562012,64.0000305z"/>
</svg>
