<?xml version="1.0" encoding="utf-8"?>
<!-- Generator: Adobe Illustrator 26.5.0, SVG Export Plug-In . SVG Version: 6.00 Build 0)  -->
<svg version="1.1" id="CompassOneLayer" xmlns="http://www.w3.org/2000/svg" xmlns:xlink="http://www.w3.org/1999/xlink" x="0px"
	 y="0px" viewBox="0 0 150 150" style="enable-background:new 0 0 150 150;" xml:space="preserve">
<g>
	
		<circle style="fill:#FFFFFF;stroke:#1A1A1A;stroke-width:0.2222;stroke-linecap:round;stroke-miterlimit:2.6667;" cx="75" cy="75" r="27.8"/>
	
		<circle style="fill:none;stroke:#1A1A1A;stroke-width:0.2222;stroke-linecap:round;stroke-miterlimit:2.6667;" cx="75" cy="75" r="29.4"/>
	
		<circle style="fill:none;stroke:#1A1A1A;stroke-width:0.2222;stroke-linecap:round;stroke-miterlimit:2.6667;" cx="75" cy="75" r="23.9"/>
	
		<circle style="fill:none;stroke:#1A1A1A;stroke-width:0.2222;stroke-linecap:round;stroke-miterlimit:2.6667;" cx="75" cy="75" r="25.6"/>
	
		<circle style="fill:none;stroke:#7A7D7D;stroke-width:1.6667;stroke-linecap:round;stroke-miterlimit:2.6667;" cx="75" cy="75" r="28.6"/>
	
		<circle style="fill:none;stroke:#7A7D7D;stroke-width:1.6667;stroke-linecap:round;stroke-miterlimit:2.6667;" cx="75" cy="75" r="24.7"/>
	<path style="fill:#DB504A;stroke:#1A1A1A;stroke-width:0.2222;stroke-linecap:round;stroke-miterlimit:2.6667;" d="M58,116.1
		c4.4-7.7,5.3-9.5,7.9-13.1c-1.5-0.5-2.9-1.1-4.3-1.8C61,105.6,60.3,107.5,58,116.1"/>
	<path style="fill:#DB504A;stroke:#1A1A1A;stroke-width:0.2222;stroke-linecap:round;stroke-miterlimit:2.6667;" d="M33.9,92
		c8.6-2.3,10.5-3,14.8-3.6c-0.7-1.4-1.3-2.8-1.8-4.3C43.5,86.7,41.6,87.6,33.9,92"/>
	<path style="fill:#DB504A;stroke:#1A1A1A;stroke-width:0.2222;stroke-linecap:round;stroke-miterlimit:2.6667;" d="M33.9,58
		c7.7,4.4,9.5,5.3,13.1,7.9c0.5-1.5,1.1-2.9,1.8-4.3C44.4,61,42.5,60.3,33.9,58"/>
	<path style="fill:#DB504A;stroke:#1A1A1A;stroke-width:0.2222;stroke-linecap:round;stroke-miterlimit:2.6667;" d="M58,33.9
		c2.3,8.6,3,10.5,3.6,14.8c1.4-0.7,2.8-1.3,4.3-1.8C63.3,43.5,62.4,41.6,58,33.9"/>
	<path style="fill:#DB504A;stroke:#1A1A1A;stroke-width:0.2222;stroke-linecap:round;stroke-miterlimit:2.6667;" d="M92,116.1
		c-2.3-8.6-3-10.5-3.6-14.8c-1.4,0.7-2.8,1.3-4.3,1.8C86.7,106.5,87.6,108.4,92,116.1"/>
	<path style="fill:#DB504A;stroke:#1A1A1A;stroke-width:0.2222;stroke-linecap:round;stroke-miterlimit:2.6667;" d="M116.1,92
		c-7.7-4.4-9.5-5.3-13.1-7.9c-0.5,1.5-1.1,2.9-1.8,4.3C105.6,89,107.5,89.7,116.1,92"/>
	<path style="fill:#DB504A;stroke:#1A1A1A;stroke-width:0.2222;stroke-linecap:round;stroke-miterlimit:2.6667;" d="M92,33.9
		c-4.4,7.7-5.3,9.5-7.9,13.1c1.5,0.5,2.9,1.1,4.3,1.8C89,44.4,89.7,42.5,92,33.9"/>
	<path style="fill:#DB504A;stroke:#1A1A1A;stroke-width:0.2222;stroke-linecap:round;stroke-miterlimit:2.6667;" d="M116.1,58
		c-8.6,2.3-10.5,3-14.8,3.6c0.7,1.4,1.3,2.8,1.8,4.3C106.5,63.3,108.4,62.4,116.1,58"/>
</g>
</svg>
