<?xml version="1.0" encoding="utf-8"?>
<!-- Generator: Adobe Illustrator 26.5.0, SVG Export Plug-In . SVG Version: 6.00 Build 0)  -->
<svg version="1.1" id="CompassZeroLayer" xmlns="http://www.w3.org/2000/svg" xmlns:xlink="http://www.w3.org/1999/xlink" x="0px"
	 y="0px" viewBox="0 0 150 150" style="enable-background:new 0 0 150 150;" xml:space="preserve">
<path style="fill:#7A7D7D;stroke:#1A1A1A;stroke-width:0.2192;stroke-miterlimit:10;" d="M75,127.6c-29,0-52.6-23.6-52.6-52.6
	C22.4,46,46,22.4,75,22.4S127.6,46,127.6,75S104,127.6,75,127.6z M75,24.5c-27.8,0-50.5,22.6-50.5,50.5s22.6,50.5,50.5,50.5
	s50.5-22.6,50.5-50.5S102.8,24.5,75,24.5z"/>
<path style="fill:#7A7D7D;stroke:#231F20;stroke-width:0.2056;stroke-miterlimit:10;" d="M75,122.7c-26.3,0-47.7-21.4-47.7-47.7
	S48.7,27.3,75,27.3s47.7,21.4,47.7,47.7S101.3,122.7,75,122.7z M75,29.5c-25.1,0-45.5,20.4-45.5,45.5s20.4,45.5,45.5,45.5
	s45.5-20.4,45.5-45.5S100.1,29.5,75,29.5z"/>
<path style="fill:#16697A;stroke:#1A1A1A;stroke-width:0.2193;stroke-linecap:round;stroke-miterlimit:2.6667;" d="M75,149
	c1.4-5.1,4.2-10.3,6.3-13.2c-0.2-1.2,0-1.7,1.3-2.1c3.5-5.4,6.7-6.8,11-9.5c-6,2.3-12.3,3.5-18.7,3.5L75,149c-1-3.2-2.5-6.5-4-9.2
	l-0.8-12.3c-4.8-0.4-9.5-1.5-14-3.2c4.3,2.7,7.5,4.1,11,9.5c1.3,0.2,1.6,0.9,1.3,2.1C70.8,138.7,73.6,143.9,75,149"/>
<path style="fill:#16697A;stroke:#1A1A1A;stroke-width:0.2193;stroke-linecap:round;stroke-miterlimit:2.6667;" d="M1,75
	c5.1,1.4,10.3,4.2,13.2,6.3c1.2-0.2,1.7,0,2.1,1.3c5.4,3.5,6.8,6.7,9.5,11c-2.3-6-3.5-12.3-3.5-18.7L1,75c3.2-1,6.5-2.5,9.2-4
	l12.3-0.8c0.4-4.8,1.5-9.5,3.2-14c-2.7,4.3-4.1,7.5-9.5,11c-0.2,1.3-0.9,1.6-2.1,1.3C11.3,70.8,6.1,73.6,1,75"/>
<path style="fill:#16697A;stroke:#1A1A1A;stroke-width:0.2193;stroke-linecap:round;stroke-miterlimit:2.6667;" d="M75,1
	c-1.4,5.1-4.2,10.3-6.3,13.2c0.2,1.2,0,1.7-1.3,2.1c-3.5,5.4-6.7,6.8-11,9.5c6-2.3,12.3-3.5,18.7-3.5L75,1c1,3.2,2.5,6.5,4,9.2
	l0.8,12.3c4.8,0.4,9.5,1.5,14,3.2c-4.3-2.7-7.5-4.1-11-9.5c-1.3-0.2-1.6-0.9-1.3-2.1C79.2,11.3,76.4,6.1,75,1"/>
<path style="fill:#16697A;stroke:#1A1A1A;stroke-width:0.2193;stroke-linecap:round;stroke-miterlimit:2.6667;" d="M149,75
	c-5.1-1.4-10.3-4.2-13.2-6.3c-1.2,0.2-1.7,0-2.1-1.3c-5.4-3.5-6.8-6.7-9.5-11c2.3,6,3.5,12.3,3.5,18.7L149,75c-3.2,1-6.5,2.5-9.2,4
	l-12.3,0.8c-0.4,4.8-1.5,9.5-3.2,14c2.7-4.3,4.1-7.5,9.5-11c0.2-1.3,0.9-1.6,2.1-1.3C138.7,79.2,143.9,76.4,149,75"/>
<path style="fill:#3E4E50;stroke:#1A1A1A;stroke-width:0.2193;stroke-linecap:round;stroke-miterlimit:2.6667;" d="M22.7,127.3
	c4.6-2.6,10.2-4.3,13.8-4.9c0.7-1,1.2-1.2,2.4-0.5c6.3-1.3,9.6-0.1,14.6,1c-5.8-2.6-11.1-6.2-15.6-10.8L22.7,127.3
	c1.6-3,2.9-6.2,3.8-9.2l8.1-9.4c-3.1-3.7-5.7-7.8-7.6-12.2c1.1,4.9,2.4,8.2,1,14.6c0.7,1.2,0.5,1.7-0.5,2.4
	C27,117.1,25.3,122.7,22.7,127.3"/>
<path style="fill:#3E4E50;stroke:#1A1A1A;stroke-width:0.2193;stroke-linecap:round;stroke-miterlimit:2.6667;" d="M22.7,22.7
	c2.6,4.6,4.3,10.2,4.9,13.8c1,0.7,1.2,1.2,0.5,2.4c1.3,6.3,0.1,9.6-1,14.6c2.6-5.8,6.2-11.1,10.8-15.6L22.7,22.7
	c3,1.6,6.2,2.9,9.2,3.8l9.4,8.1C45,31.5,49.1,29,53.5,27c-4.9,1.1-8.2,2.4-14.6,1c-1.2,0.7-1.7,0.5-2.4-0.5
	C32.9,27,27.3,25.3,22.7,22.7"/>
<path style="fill:#3E4E50;stroke:#1A1A1A;stroke-width:0.2193;stroke-linecap:round;stroke-miterlimit:2.6667;" d="M127.3,127.3
	c-4.6-2.6-10.2-4.3-13.8-4.9c-0.7-1-1.2-1.2-2.4-0.5c-6.3-1.3-9.6-0.1-14.6,1c5.8-2.6,11.1-6.2,15.6-10.8L127.3,127.3
	c-1.6-3-2.9-6.2-3.8-9.2l-8.1-9.4c3.1-3.7,5.7-7.8,7.6-12.2c-1.1,4.9-2.4,8.2-1,14.6c-0.7,1.2-0.5,1.7,0.5,2.4
	C123,117.1,124.7,122.7,127.3,127.3"/>
<path style="fill:#3E4E50;stroke:#1A1A1A;stroke-width:0.2193;stroke-linecap:round;stroke-miterlimit:2.6667;" d="M127.3,22.7
	c-4.6,2.6-10.2,4.3-13.8,4.9c-0.7,1-1.2,1.2-2.4,0.5c-6.3,1.3-9.6,0.1-14.6-1c5.8,2.6,11.1,6.2,15.6,10.8L127.3,22.7
	c-1.6,3-2.9,6.2-3.8,9.2l-8.1,9.4c3.1,3.7,5.7,7.8,7.6,12.2c-1.1-4.9-2.4-8.2-1-14.6c-0.7-1.2-0.5-1.7,0.5-2.4
	C123,32.9,124.7,27.3,127.3,22.7"/>
</svg>
