<?xml version="1.0" encoding="utf-8"?>
<!-- Generator: Adobe Illustrator 26.5.0, SVG Export Plug-In . SVG Version: 6.00 Build 0)  -->
<svg version="1.1" id="CompassTwoLayer" xmlns="http://www.w3.org/2000/svg" xmlns:xlink="http://www.w3.org/1999/xlink" x="0px"
	 y="0px" viewBox="0 0 150 150" style="enable-background:new 0 0 150 150;" xml:space="preserve">
<g>
	
		<circle style="fill:none;stroke:#1A1A1A;stroke-width:0.2222;stroke-linecap:round;stroke-miterlimit:2.6667;" cx="75" cy="75" r="10.3"/>
	
		<circle style="fill:none;stroke:#1A1A1A;stroke-width:0.2222;stroke-linecap:round;stroke-miterlimit:2.6667;" cx="75" cy="75" r="11.9"/>
	
		<circle style="fill:none;stroke:#1A1A1A;stroke-width:0.2222;stroke-linecap:round;stroke-miterlimit:2.6667;" cx="75" cy="75" r="7.8"/>
	
		<circle style="fill:none;stroke:#1A1A1A;stroke-width:0.2222;stroke-linecap:round;stroke-miterlimit:2.6667;" cx="75" cy="75" r="4.4"/>
	
		<circle style="fill:none;stroke:#16697A;stroke-width:3.3333;stroke-linecap:round;stroke-miterlimit:2.6667;" cx="75" cy="75" r="6.1"/>
	
		<circle style="fill:none;stroke:#7A7D7D;stroke-width:1.6667;stroke-linecap:round;stroke-miterlimit:2.6667;" cx="75" cy="75" r="11.1"/>
	<path style="fill:#3E4E50;stroke:#0B0B0B;stroke-width:0.2222;stroke-linecap:round;stroke-miterlimit:2.6667;" d="M75,95.3
		c1-4.3,2.3-6.9,4.6-9.2c-2.9,1.2-6.2,1.2-9.1,0C72.7,88.4,74,91,75,95.3"/>
	<path style="fill:#3E4E50;stroke:#0B0B0B;stroke-width:0.2222;stroke-linecap:round;stroke-miterlimit:2.6667;" d="M54.7,75
		c4.3,1,6.9,2.3,9.2,4.6c-1.2-2.9-1.2-6.2,0-9.1C61.6,72.7,59,74,54.7,75"/>
	<path style="fill:#3E4E50;stroke:#0B0B0B;stroke-width:0.2222;stroke-linecap:round;stroke-miterlimit:2.6667;" d="M95.3,75
		c-4.3-1-6.9-2.3-9.2-4.6c1.2,2.9,1.2,6.2,0,9.1C88.4,77.3,91,76,95.3,75"/>
	<path style="fill:#3E4E50;stroke:#0B0B0B;stroke-width:0.2222;stroke-linecap:round;stroke-miterlimit:2.6667;" d="M60.7,89.3
		c3.7-2.3,6.5-3.3,9.8-3.3c-2.9-1.2-5.3-3.5-6.5-6.5C63.9,82.9,63,85.6,60.7,89.3"/>
	<path style="fill:#3E4E50;stroke:#0B0B0B;stroke-width:0.2222;stroke-linecap:round;stroke-miterlimit:2.6667;" d="M60.7,60.7
		c2.3,3.7,3.3,6.5,3.3,9.8c1.2-2.9,3.5-5.3,6.5-6.5C67.1,63.9,64.4,63,60.7,60.7"/>
	<path style="fill:#3E4E50;stroke:#0B0B0B;stroke-width:0.2222;stroke-linecap:round;stroke-miterlimit:2.6667;" d="M89.3,60.7
		c-3.7,2.3-6.5,3.3-9.8,3.3c2.9,1.2,5.3,3.5,6.5,6.5C86.1,67.1,87,64.4,89.3,60.7"/>
	<g id="t0_00000158006963331505037270000007943618719731740852_">
		<path style="fill:#3E4E50;stroke:#0B0B0B;stroke-width:0.2222;stroke-linecap:round;stroke-miterlimit:2.6667;" d="M89.3,89.3
			c-2.3-3.7-3.3-6.5-3.3-9.8c-1.2,2.9-3.5,5.3-6.5,6.5C82.9,86.1,85.6,87,89.3,89.3"/>
	</g>
	<path style="fill:#3E4E50;stroke:#0B0B0B;stroke-width:0.2222;stroke-linecap:round;stroke-miterlimit:2.6667;" d="M75,54.7
		c-1,4.3-2.3,6.9-4.6,9.2c2.9-1.2,6.2-1.2,9.1,0C77.3,61.6,76,59,75,54.7"/>
</g>
</svg>
